<?xml version="1.0" standalone="no"?>
<!DOCTYPE svg PUBLIC "-//W3C//DTD SVG 1.1//EN" "http://www.w3.org/Graphics/SVG/1.1/DTD/svg11.dtd" >
<svg xmlns="http://www.w3.org/2000/svg" xmlns:xlink="http://www.w3.org/1999/xlink" version="1.1">
<metadata></metadata>
<defs>
<font id="buffalostanceregular" horiz-adv-x="862" >
<font-face units-per-em="2048" ascent="1638" descent="-410" />
<missing-glyph horiz-adv-x="500" />
<glyph horiz-adv-x="0" />
<glyph horiz-adv-x="682" />
<glyph unicode=" " />
<glyph unicode="," horiz-adv-x="538" d="M127 -184q0 11 45 121t45 161q0 5 -7 24.5t-7 24.5q0 14 22 56q25 41 39.5 52t50.5 11q12 0 25 -3t21.5 -6t22 -10.5t19 -11.5t20.5 -14.5t19 -13.5q2 -6 2 -27q0 -109 -67 -258q-83 -176 -174 -176q-25 0 -50.5 23t-25.5 47z" />
<glyph unicode="." horiz-adv-x="557" d="M201 96q0 51 41 95.5t90 44.5q37 0 72.5 -26.5t35.5 -57.5q0 -54 -34 -115q-41 -72 -89 -72q-40 0 -79 45q-37 46 -37 86z" />
<glyph unicode="0" horiz-adv-x="913" d="M92 412q0 135 70 342q23 61 84 133q72 90 119 90h12q100 0 131 -8q38 -8 178 -80q26 -15 72 -84q47 -71 55 -103q21 -71 21 -163q0 -21 -13 -68q-10 -36 -16 -70q-15 -100 -92 -221q-79 -116 -162.5 -157t-194.5 -41q-9 0 -80 51q-73 52 -79 61q-105 156 -105 318z M348 377q0 -68 13.5 -100t41.5 -31q78 51 129 155q54 111 54 201q0 26 -17 72q-21 47 -47 47q-30 0 -96 -90q-57 -84 -68 -125q-10 -45 -10 -129z" />
<glyph unicode="1" horiz-adv-x="514" d="M111 651q0 19 53 43q55 25 76 25q124 0 151 -133q8 -33 8 -230q0 -43 11 -168q3 -38 6.5 -77.5t5 -59.5t2.5 -28q-5 -4 -23 -18.5t-26 -20t-23.5 -11.5t-29.5 -6q-106 0 -158 242q-33 152 -33 336q0 13 -10 53t-10 53z" />
<glyph unicode="2" horiz-adv-x="958" d="M68 592q0 70 18 100q43 61 111 127l122 111q21 12 76 45q1 3 23 33q43 21 139 75q68 45 98 45q56 0 107 -32q57 -34 57 -80q0 -20 -135 -361q-39 -100 -80.5 -206.5t-58.5 -150.5t-21 -54l6 -6q41 0 134 34q96 35 131 35q38 0 73 -37.5t35 -76.5q0 -24 -35 -54 q-36 -29 -59 -37q-129 -47 -166 -59q-92 -33 -160 -70q0 -3 -61 -43q-43 -32 -60 -32q-69 0 -123.5 54.5t-54.5 123.5q0 10 27 47q8 12 16.5 25t12 18.5t4.5 7.5q25 59 86 217q69 184 69 199q43 40 70 176q-90 -47 -160 -191q-62 -120 -133 -120q-22 0 -106 63 q-1 26 -1.5 52.5t-0.5 21.5z" />
<glyph unicode="3" horiz-adv-x="1019" d="M39 803q0 16 37 43q28 25 51 35q38 8 92 26q39 31 117 66q33 8 94.5 23.5t87.5 21.5q110 26 187 26q21 0 61 -40q43 -40 43 -60q0 -55 -49 -119q-54 -61 -88 -102q-66 -101 -103 -154q2 -6 15 -16q7 0 61 -4q127 -28 184 -53q35 -14 74 -97q37 -78 37 -125 q0 -40 -94 -192q-96 -153 -127 -166q-110 -49 -121 -49q-15 0 -61 37q-43 37 -43 51q0 59 90 166q91 111 94 188q-18 21 -57 21q-53 0 -156 -47t-156 -47q-65 0 -104 57q-35 50 -35 117q0 8 92 147q47 71 109 160q-1 1 -2 3t-2 3q-22 0 -72 -47q-47 -47 -102 -47 q-51 0 -103 61q-51 60 -51 113z" />
<glyph unicode="4" horiz-adv-x="1019" d="M72 252q0 47 178 354q198 341 229 416q2 11 13 47q7 18 88 47q79 33 106 33q74 0 117 -42t43 -114q0 -19 -19 -84q-16 -55 -20 -90q-4 -78 -4 -141q0 -10 4 -92q6 -59 6 -88q12 -4 45 -4q80 0 80 -91q0 -52 -31 -88q-27 -27 -78 -53q1 -2 4.5 -12t11 -29.5t15.5 -40.5 q23 -71 23 -76q0 -36 -52 -79q-49 -43 -86 -43q-72 0 -124 73q-43 64 -46 144q-56 -10 -149 -35q-15 -5 -96 -53q-53 -29 -111 -29q-61 0 -104 52.5t-43 117.5zM420 424q5 0 24.5 -5t24.5 -5q14 0 55 14q52 18 58 18q-3 61 -5.5 117.5t-4 82.5t-1.5 30q-89 -128 -151 -252z " />
<glyph unicode="5" horiz-adv-x="827" d="M80 715q0 31 31 116q36 85 55 99q230 159 436 213q8 7 25 18q14 5 71 13q55 8 80 8q40 0 86 -117q0 -51 -57 -96q-54 -45 -107 -45q-41 0 -184 -93q-139 -89 -139 -124q0 -9 57 -101q61 -99 109 -200q57 -129 57 -228q0 -52 -59 -117q-16 -18 -31.5 -34.5t-25.5 -27.5 t-17.5 -20t-11.5 -13l-4 -5q-59 -18 -99 -18q-43 0 -110 28q-71 30 -86 68q-35 87 -35 90q0 24 47 68q46 43 74 43q4 0 14 -12.5t18 -12.5h39q15 6 15 16q0 7 -11.5 30t-11.5 32q0 4 2 20t2 21q0 30 -114 162q-115 133 -115 219z" />
<glyph unicode="6" horiz-adv-x="878" d="M59 432q0 14 9 41q3 11 6.5 21t5 16t2.5 8q36 182 137 373q29 56 201 346q27 12 96 12q55 0 100.5 -39.5t45.5 -89.5l-13 -69q-100 -75 -172 -185q0 -15 15 -24q125 0 190 -41q70 -43 111 -158q4 -12 4 -37q0 -204 -107 -399q-125 -230 -309 -230q-89 0 -178 95 q-76 76 -117 176q-27 67 -27 184zM309 383q0 -31 25 -92q27 -64 57 -64q64 55 117 164q53 112 53 197q0 76 -55 76q-16 0 -57 -13q-28 -10 -60 -16q-35 -24 -35 -100q0 -47 -32 -66l-3 -8q0 4 2 -2q4 -10 9 -33q-21 -30 -21 -43z" />
<glyph unicode="7" horiz-adv-x="1017" d="M31 805q0 7 18.5 40t18.5 42q113 34 204 65q3 1 9 4.5t18 10t23 12.5q42 22 51 22q5 0 10 -4t10 -4q19 9 58 23q44 15 149 90q75 57 137 57q42 0 88 -61q49 -58 49 -101q0 -49 -32 -77l-60 -56q-15 -19 -59 -137q-37 -107 -37 -137q0 -5 4 -22.5t4 -22.5h72 q8 0 28.5 11.5t24.5 12.5q99 21 146 21q26 0 52.5 -32t26.5 -62q0 -35 -22 -84q-12 -4 -89 -32t-136 -48q-15 -22 -88 -37q-70 -15 -97 -61q-18 -33 -45 -242q-24 -200 -24 -258q0 -37 8 -92q10 -68 10 -92t-6 -39q-7 -21 -43 -54q-37 -34 -55 -34h-68q-75 0 -96 94 q-20 122 -23 147l84 522q-127 95 -127 232q43 34 80 49q9 3 26.5 8t26.5 8q40 12 43 27q46 174 46 217q-3 6 -11 6q-59 0 -123 -43q-65 -41 -112 -41q-11 0 -47 4q-40 7 -45 7q-5 6 -21 23.5t-23 26.5t-17 25t-14.5 32t-4.5 34z" />
<glyph unicode="8" horiz-adv-x="808" d="M76 528q0 14 22 88q22 65 37 91q7 7 27 22q10 10 10 59v1q-1 1 -2 4.5t-2.5 8.5t-3 12.5t-4 16t-5 20t-5.5 23.5q-25 112 -25 195q0 129 164 209q136 68 280 68q97 0 146 -76q43 -64 43 -166q0 -14 -256 -449q0 -20 49 -102q66 -111 92 -178q49 -119 49 -215 q0 -86 -63 -143.5t-152 -57.5q-37 0 -74 15.5t-57 30t-60.5 49t-52.5 44.5q-46 72 -67 103q-90 159 -90 327zM334 420q0 -33 35 -98q38 -62 65 -74q0 54 -33 121q-30 70 -67 110v-59zM365 999q0 -22 20 -55q1 2 34 53.5t58 89.5h-51q-18 0 -39 -34q-22 -36 -22 -54z" />
<glyph unicode="9" horiz-adv-x="1024" d="M61 305q0 197 355 600q93 105 221 105q45 0 61 -13q18 -15 72 -53q19 -10 38.5 -20.5t31 -16.5t21 -11.5t13.5 -7.5t5 -3q47 -38 47 -111q0 -10 -15 -51q-16 -50 -16 -55q-10 -52 -10 -115v-354q0 -107 10 -172q2 -10 12 -60.5t17 -89.5q3 -28 12 -80q8 -16 22 -37 q17 -31 17 -84q0 -34 -53 -69q-52 -37 -88 -37q-44 0 -117 102q-69 92 -72 144q33 62 33 145q0 44 -12 133q-13 99 -13 135q-1 1 -2 3.5t-2 3.5q-26 0 -129 -103q-44 -44 -133 -72q-91 -30 -158 -30q-19 0 -86 67q-65 71 -71 92q-11 42 -11 115zM307 313q0 -18 12 -18 q50 0 179 170q131 168 131 235q0 -5 -3.5 3.5t-7.5 25.5q-76 -43 -157 -149q-71 -95 -115 -191l-22 -39q-17 -31 -17 -37z" />
<glyph unicode="A" horiz-adv-x="1376" d="M27 424q0 3 4 57q25 16 55 31q34 5 127 10q83 6 123 25q5 5 74 192q29 65 106 283q33 71 74 180q1 10 2 38.5t2 41.5q41 27 86 39q0 8 -2 41.5t-2 42.5q0 51 29 94q73 25 102 25q33 0 70 -24t49 -54q11 -26 14 -88q1 -15 4 -46.5t4 -47.5q3 -34 25 -109q21 -72 24 -102 q34 -233 111 -412q23 -1 68.5 -2t68.5 -2q86 -9 111 -64q-6 -60 -47 -75q-16 -8 -80 -11q-44 -3 -53 -24q13 -77 55 -168q40 -92 72 -160q0 -2 3 -43t5 -69q-3 -14 -25 -39q-40 -27 -100 -27q-23 0 -33 2q-36 9 -80 80q-41 71 -41 113q0 5 2 25.5t2 25.5q0 26 -37 116 q-34 92 -51 113q-10 -2 -35 -2h-12q-30 0 -45 -6q-27 -11 -47 -16q-30 -9 -143 -15q-85 -6 -140 -31q-25 -11 -47 -96q-12 -61 -63 -219q-7 -19 -42 -38t-59 -19q-38 0 -69 36t-31 78q0 36 21 101q26 78 28 100q-11 0 -123 14q-61 6 -112 66q-2 10 -2 39zM586 580 q133 10 297 38q-13 67 -27 136q-30 52 -35 63q-16 66 -26 101q-15 62 -43 90q0 -30 -4 -50q-23 -26 -52 -77q-50 -125 -110 -301z" />
<glyph unicode="B" horiz-adv-x="1452" d="M-27 1022q18 72 37 84q140 103 408 168q241 61 442 61q197 0 197 -123q0 -68 -86 -151q-116 -111 -133 -133h14h7q29 0 95 14q72 16 101 16h71h12q294 0 294 -141q0 -89 -207 -287q-41 -35 -142 -122t-155 -134q-6 -3 -26 -12.5t-34 -15.5q-17 -20 -59 -51 q-59 -27 -215 -146q-7 -6 -42.5 -34t-53.5 -44q-71 -53 -101 -53q-14 0 -55.5 9t-50.5 10q-60 57 -60 92q0 26 41 67t41 74q0 27 -22 104q-10 83 -43 220q-7 20 -39 55q-31 39 -31 65q0 31 18 62l19 31q18 83 18 153q0 53 -22 92h-8q-8 0 -40.5 -7t-41.5 -7q-74 0 -127 41 q-3 16 -21 43zM455 510l2 -8q20 -28 32 -119q15 -78 54 -117h2q35 0 151 88q34 21 90 62q54 57 207 190q24 16 131 129l-6 29q-121 0 -198 -25q-33 -23 -86 -43q-87 -16 -189 -57q-30 -13 -90.5 -39.5t-89.5 -40.5q-9 -49 -10 -49zM463 993q0 -13 2 -52t2 -50 q105 85 276 239q-30 5 -38 5q-54 0 -216 -52q-26 -36 -26 -90z" />
<glyph unicode="C" horiz-adv-x="1271" d="M41 381q0 125 125 305q22 30 213 272q53 80 153 197q50 47 138 111q121 84 143 104q36 33 119 92q162 0 162 -159q0 -60 -33 -93q-46 -46 -51 -59q-31 -85 -31 -289q0 -47 -37 -102t-84 -55q-14 0 -29 6q-71 41 -71 180v55q2 23 2 47q0 23 -2 31q-5 1 -11.5 2t-10 1.5 t-5.5 0.5h-8q-19 -3 -72 -74q-58 -66 -133 -157q-44 -38 -112 -117q-14 -24 -43 -70t-44 -69q-45 -83 -45 -152q0 -94 78 -151q70 -52 170 -52q135 0 307 88q111 54 263 160q127 86 149 86q19 0 33 -2q22 -31 22 -59q0 -6 -2 -12t-6 -12.5t-7.5 -12t-10 -13t-10.5 -12 t-12 -13t-11 -11.5q-51 -69 -203 -178q-257 -187 -551 -187q-186 0 -307 92q-135 102 -135 281z" />
<glyph unicode="D" horiz-adv-x="1409" d="M33 1163q0 37 49 74q38 30 82 45t117 23q102 9 118 12q138 24 244 24l16 15q82 -8 158 -8q52 0 101 4l10 -11q40 -3 118.5 -10t118.5 -10q157 -24 207 -92q35 -45 62 -80q-27 -145 -68 -207q-127 -189 -369 -440q-38 -41 -139 -125q-94 -76 -141 -123q-79 -79 -146 -158 q-85 -103 -145 -159q-29 -16 -64 -31q-49 16 -90 65q-43 49 -43 97q0 28 54 82q53 56 53 157q0 1 -19 109q-24 122 -28 213v42q0 121 -13 349q0 3 -10 10h-10q-9 1 -39.5 -2.5t-36.5 -3.5q-58 0 -102.5 41.5t-44.5 97.5zM500 1118q4 -36 4 -346q0 -81 14 -190 q13 -103 23 -191q219 139 503 498q7 9 84 102q54 73 54 115l-2 12q-234 29 -375 29q-150 0 -305 -29z" />
<glyph unicode="E" horiz-adv-x="1320" d="M45 508q0 58 82 110q2 0 133 64q57 28 109 291q-8 4 -13 4q-6 0 -37 -10.5t-45 -10.5q-56 0 -104 31q-53 38 -53 92q0 49 26 78q5 2 26.5 15t39 22.5t56 22.5t83.5 22q124 30 223 51q163 39 207 39q5 0 20 -3t19 -3q12 0 46 10t42 10q91 9 264 9q36 0 84 -31 q47 -30 47 -68q0 -31 -34 -61q-171 -24 -631 -111v-43q0 -26 -86 -245q0 -8 12 -17q64 11 141 41q120 40 140 45q40 24 47 27q20 2 61 4l25 12h8h7q30 0 73 -22q1 -11 2 -22.5t1.5 -17t0.5 -7.5q0 -37 -20 -54q-27 -25 -183 -104q-155 -79 -200 -98q-20 -7 -68 -19 q-46 -13 -66 -33q-34 -30 -34 -90q0 -77 49 -135q53 -65 127 -65q59 0 98 20q60 47 86 66q222 163 354 317q66 -35 66 -100q0 -79 -76 -164q-90 -90 -133 -135q-33 -34 -80 -74q-24 -31 -96 -90q-127 -62 -225 -62q-62 0 -123 23q-17 17 -56 43q-103 60 -141 147 q-38 89 -72 174q-3 3 -10 3q-8 0 -30.5 -10.5t-30.5 -10.5q-47 0 -99 37q-59 41 -59 86z" />
<glyph unicode="F" horiz-adv-x="1378" d="M49 1030q0 88 55 109q36 11 82 16q73 10 82 12q32 13 94 33q66 15 433 68q133 26 227 43q-9 -1 3 -2h69q53 0 141 14t143 14q79 0 115 -26q16 -26 16 -47q0 -47 -82 -74q-19 -8 -120 -29q-54 -15 -291 -65q-66 -7 -240 -35q-195 -34 -217 -66q3 -19 10.5 -56.5 t10.5 -57.5q15 -63 45 -107q57 13 155 27q31 3 131 12q73 8 131 8q82 0 109 -12q5 -5 29 -25q4 -20 4 -30q0 -7 -4 -43q-23 -27 -70 -62q-78 -29 -197 -49q-49 -10 -97.5 -19t-73 -13.5t-31.5 -6.5q-6 -6 -6 -14q0 -4 2 -12q3 -5 11 -24t26 -60t36 -80q45 -105 94 -154 l5 -59q0 -106 -84 -121q-7 5 -82 26q-48 15 -68 60q0 3 -4 39q-55 139 -72 176q-51 112 -90 166q-6 2 -24 2q-48 0 -76 -14q-16 22 -47 22q-18 0 -39 -6q-53 44 -53 182q0 19 14 39q59 35 133 35q3 7 6 20q-2 6 -9 29.5t-11 34.5t-12 29t-17 30t-20 21q-6 2 -21 2 q-14 0 -24 -2l-15 -21l-69 -4q-46 0 -97 39q-49 40 -49 88z" />
<glyph unicode="G" horiz-adv-x="1366" d="M57 369q0 108 148 356q112 185 225 317q18 30 68 99q30 38 108 100q3 8 23 35q29 17 59 27q46 18 66 18q38 0 88 -29q49 -27 49 -67q0 -71 -29 -97q-12 -8 -88 -41q-16 -13 -47 -40l-22 -5q-114 -108 -256 -309q-170 -244 -170 -352q0 -80 51 -109q32 -16 119 -26 q12 21 49 24q52 3 61 6q20 7 143 86q119 76 136 93q8 8 8 30q0 17 -2 27q-17 14 -49 14q-12 0 -55.5 -5t-57.5 -5q-62 0 -101.5 32.5t-39.5 88.5q0 46 20 82q21 46 62 55q52 12 198 12h211q56 2 201 23q193 28 201 29q16 -25 45 -47v-7v-6q0 -35 -31 -69q-8 -9 -33 -19 q-26 -9 -37 -16q-36 -28 -86 -37q-56 -13 -88 -29q-19 -8 -63 -18q-38 -6 -49.5 -10.5t-22.5 -18.5q0 -196 86 -502q-2 -5 -6.5 -21.5t-7 -22.5t-7.5 -19.5t-10 -21t-12.5 -17.5t-17 -18t-21.5 -15q-15 -6 -26 -6q-32 0 -62 41q-29 44 -35 76q-9 79 -55 194h-8 q-13 0 -25 -3.5t-24 -12.5t-18.5 -14.5t-20 -20t-17.5 -18.5q-6 0 -30 -4q-29 -21 -58 -37q-137 -82 -256 -82q-91 0 -207 45q-26 18 -96 78q-7 8 -45 100q-33 82 -33 109z" />
<glyph unicode="H" horiz-adv-x="1511" d="M29 344l6 24q6 25 2 33q67 48 96 48q7 0 28 -2.5t25 -2.5q13 0 56 18.5t59 18.5q41 0 51 23q2 20 2 76q0 39 -4 223q-3 171 -6 223q-12 21 -12 37q0 45 43 115q16 2 51 2q102 0 138 -36t36 -136q0 -13 -2 -63t-2 -66q0 -8 -5 -35t-5 -35q0 -39 -2 -66v-65q0 -76 2 -111 l10 -12q364 56 551 123q0 11 8 53t8 55q0 7 -3 31t-3 31q0 9 12 44t13 42q21 172 30 323q12 158 95 158q65 0 116 -39q62 -44 62 -104q0 -56 -31 -164q-31 -109 -31 -164q0 -43 -18 -151q-19 -111 -19 -164q0 -31 3 -58q-7 -19 -11 -30q6 -21 6 -125q0 -4 -3 -19.5t-3 -19.5 q0 -21 4 -89t4 -89q0 -139 -55 -215q-83 -25 -117 -25q-13 0 -30 20.5t-19 34.5q-20 149 -20 408q0 15 -4 39q-8 2 -31 2q-67 0 -192 -45q-122 -45 -150 -45q-4 0 -16.5 2t-16.5 2q-51 0 -119 -41l-2 -29q0 -13 6.5 -54t6.5 -52q0 -117 -135 -117q-97 0 -97 166 q-20 10 -41 10q-24 0 -90 -29q-59 -26 -96 -26q-28 0 -51 10q-21 12 -56 59q-32 46 -32 70z" />
<glyph unicode="I" horiz-adv-x="448" d="M63 1206q0 133 119 133q37 0 80 -49q46 -46 55 -92q13 -65 21 -307q3 -203 6 -402q9 -246 51 -393q4 -12 4 -22q0 -44 -43 -90q-41 -47 -80 -47q-6 0 -36 12t-43 12q-41 47 -54 76q-22 49 -22 201q0 60 -6 174q-4 156 -4 176q0 42 -9 127q-8 79 -8 129q0 12 2 46t2 46 q0 44 -18 133q-17 104 -17 137z" />
<glyph unicode="J" horiz-adv-x="1007" d="M29 266q0 74 51 185q54 116 106 149q3 3 41 6q8 0 40.5 7.5t41.5 7.5q56 0 68 -84q-139 -157 -139 -261q0 -67 47 -135q41 -6 49 -6q79 0 186 137q87 113 129 211q12 12 27 39q78 260 78 461q0 18 -4 158q-2 70 -2 157q0 4 -9.5 26t-9.5 30t6 35.5t6 35.5q36 19 60 19 q48 0 149 -43q19 -29 19 -107q0 -30 -4 -190q-7 -161 -7 -191q-3 -78 -49 -284l-2 -6q0 -4 3 -15.5t3 -15.5q0 -44 -51 -172q-42 -109 -78 -168q-30 -35 -57 -64q-22 -47 -96 -147q-132 -123 -277 -123q-72 0 -143 39q-4 1 -39 14q-58 24 -102 129q-41 93 -41 166z" />
<glyph unicode="K" horiz-adv-x="1214" d="M33 819q0 18 4 144q6 99 6 147v61q-2 29 -2 64q0 9 7.5 38.5t8.5 33.5q39 45 103 45q56 0 92.5 -32t36.5 -85q0 -10 -2 -16l-11 -25q-28 -191 -28 -227q0 -18 18 -303q7 -7 10 -7q2 2 9 2q19 13 211 144q152 123 313 244q30 13 55 28q31 33 142 144q20 20 63 20 q145 0 145 -123q0 -80 -172 -182q-44 -25 -47 -27q-3 -10 -16 -26q-37 -26 -88 -56q-144 -97 -199 -149l8 -27q44 -41 269 -246q172 -159 252 -260q18 -21 18 -67q0 -80 -72 -80q-43 0 -102 47q-62 51 -90 61q-65 75 -211 203q-171 151 -227 174q0 3 -48 51 q-178 -91 -178 -165q0 -53 27 -136q29 -85 29 -96q0 -48 -23 -92q-27 -49 -78 -49q-58 0 -100 57q-40 58 -43 117q-3 86 -17 172q-1 8 -20 38.5t-20 39.5q-7 24 -7 151q0 48 -14 125q-12 82 -12 125z" />
<glyph unicode="L" horiz-adv-x="944" d="M31 145q0 12 10 54.5t10 56.5q0 16 -6 70t-6 69q0 20 11.5 74t12.5 63q0 42 9 125q48 272 112 549q2 5 43 113q15 6 37 6q81 0 156 -57q10 -30 10 -58q0 -42 -24 -88q-27 -52 -29 -59q0 -4 2 -10.5t2 -10.5q0 -21 -14 -49q-17 -36 -21 -47q-22 -76 -63 -289 q-17 -196 -17 -383q3 -6 15 -6q14 0 57.5 10t48.5 11q6 0 28.5 0.5t31.5 1t28 2.5t29.5 5t24 8.5t22.5 12.5q32 -4 53 -4t111 11q74 12 110 12q74 0 127 -33q3 -24 6 -74q-40 -52 -75 -63q-88 -23 -279 -62q-189 -36 -278 -67q-8 -3 -52 -35q-34 -27 -61 -27q-23 0 -88 19 q-7 17 -55 74q-39 48 -39 75z" />
<glyph unicode="M" horiz-adv-x="1601" d="M25 147q0 150 43 439t43 440q0 8 3 39t3 39q0 14 -11.5 60t-11.5 59q0 92 115 92q45 0 86 -15q15 -5 27 -13t21.5 -21.5t15 -21.5t12 -28.5t8.5 -27t7.5 -32t6.5 -28.5q25 -50 27 -55q-2 5 -3 -2l-1 -20q1 -1 5.5 -10.5t10.5 -21t12 -24.5q137 -268 289 -452h8q6 0 9 6 q28 50 49 86q87 138 143 219q20 20 74 88q133 169 227 322q19 30 29 75q14 48 24 72q4 8 31 23q22 16 19 30q40 58 92 58q9 0 55 -4q39 -3 57 -7q66 -38 66 -90q0 -38 -33 -82q-9 -12 -26.5 -36.5t-26.5 -36.5q-13 -19 -19 -54q-8 -47 -8 -55q-7 -9 -26 -39 q-12 -20 -27 -168q-12 -129 -12 -178q0 -271 57 -508q0 -60 21 -180q6 -18 20 -39q14 -20 14 -45q0 -44 -30 -129q-29 -16 -56 -16q-49 0 -112 51t-72 98q1 -7 2 4v68q0 68 -22 246q-33 224 -35 256q-2 14 -2 227q-8 4 -13 4q-4 0 -12 -2q-142 -202 -158 -229 q-93 -150 -102 -252q-4 -57 -16 -117q-8 -31 -58 -57q-46 -21 -78 -23q-20 11 -71 49q-88 106 -197 279q-144 227 -188 286q-5 5 -19 5q0 -41 -10 -154q-4 -25 -41 -268q-3 -12 -6 -115q-3 -64 -23 -113q-26 -63 -79 -63q-38 0 -84 37q-43 37 -43 75z" />
<glyph unicode="N" horiz-adv-x="1388" d="M0 1042q0 80 137 80q20 0 39 -6.5t31 -13t29 -25t22.5 -25.5t23.5 -32t21 -29l12 -30q344 -369 674 -535q11 -16 31 -33l24 -2q13 53 29 182q15 122 27 181q10 25 16 45q33 215 33 264q0 11 -11.5 49.5t-11.5 52.5q0 72 33 148q102 12 162 20q51 -57 51 -170 q0 -66 -26 -258q-6 -15 -15 -45q-3 -35 -31 -313q-16 -109 -16 -156q0 -89 21 -123q3 -4 10 -13.5t9.5 -13.5t8 -12.5t7.5 -14.5l5 -15t4 -18t1 -19q0 -71 -9 -92q-15 -35 -71 -58q-6 -2 -17 -2q-55 0 -497 312q-56 40 -102.5 73.5t-88 63.5t-74.5 54l-60.5 44t-46.5 34 t-32.5 24t-19 15t-4.5 5q-3 0 -15 -4q16 -44 25 -109q12 -108 12 -110q15 -45 25 -84q10 -64 24 -162q-11 -24 -37 -57q-30 -35 -53 -35q-6 0 -30 4q-6 1 -13.5 2t-11.5 1.5t-6 0.5q-94 76 -94 252q0 53 -43 278q-44 227 -60 285q-2 12 -31 61q-20 36 -20 84z" />
<glyph unicode="O" horiz-adv-x="1179" d="M12 487q0 273 250 541q136 148 225 213q144 105 283 105q76 0 170 -64q80 -54 139 -125q10 -12 47 -94q33 -73 33 -96q0 -4 -2 -18.5t-2 -18.5q0 -8 4 -41.5t4 -42.5q0 -75 -20 -154q-10 -13 -19 -41q-53 -192 -133 -284q-119 -132 -243 -217q-172 -117 -297 -117 q-87 0 -183 45q-9 8 -36.5 28t-41.5 31q-78 43 -131 152q-47 103 -47 198zM244 475q0 -83 24 -135q6 -14 36.5 -41.5t33.5 -32.5q76 -24 111 -24t106 41q19 19 47 41q91 61 162 149q80 96 108 186q5 15 20.5 51.5t22.5 56.5t14 54t7 66q0 27 -14 98q-15 76 -25 86 q-35 41 -61 41q-135 0 -287 -131q-115 -103 -215 -244q-50 -78 -66 -106q2 6 3 -2l1 -15q0 -6 -14 -55t-14 -84z" />
<glyph unicode="P" horiz-adv-x="1372" d="M27 418v12l8 23q21 9 63.5 28.5t63.5 28.5q33 26 33 149q0 10 -1 25t-2 37.5t-2 38.5q-4 90 -4 100q0 19 7 84q6 58 6 86q0 68 -45 113q-43 49 -43 69q0 13 2 19q61 73 125 88q26 1 76 4t75 4q156 12 283 12q477 0 706 -149q13 -41 13 -86q0 -17 -5 -47q-6 -24 -49 -64 q-48 -55 -141 -135q-76 -46 -393 -225q-73 -38 -154 -84q-9 -15 -35 -35q-93 -42 -108 -49q-74 -38 -74 -82q0 -33 17 -127q16 -85 16 -121q0 -57 -27 -98q-34 -49 -86 -49q-7 0 -55 10q-43 9 -51 14q-2 9 -13 39q-11 13 -34 64q0 40 -13 139q-59 22 -135 61q-27 82 -24 103 zM426 653q59 18 145 74q14 10 61 43.5t73 52.5q32 19 67 40.5t77.5 48t65.5 40.5q151 97 177 154q-86 28 -222 31h-225q-122 0 -186 -23q-33 -106 -33 -369v-45v-47z" />
<glyph unicode="Q" horiz-adv-x="1613" d="M20 463q0 229 216 430q347 320 503 389q32 14 111 23q116 13 119 14q1 0 9 2.5t19 6t23 7.5q32 13 55 13q167 0 332 -103q178 -115 178 -271v-5l10 -31q-3 -52 -24 -160q-57 -170 -172.5 -325.5t-257.5 -253.5q-2 -2 -84 -47q-49 -24 -76 -64q6 -46 27 -178 q22 -97 51 -172q6 -15 6 -29q0 -41 -36 -78t-75 -37q-14 0 -28 7q-39 23 -86 94q-8 28 -21 63q-14 36 -31 90q-3 12 -8 36.5t-8 37.5q-5 23 -35 68h-16q-9 0 -42 -7.5t-42 -7.5h-172q-16 0 -119 41q-92 36 -127 56q-34 19 -100 116q-61 93 -76 144q-23 80 -23 131zM262 412 q0 -92 51 -160q7 -8 14.5 -14t17.5 -11.5t16.5 -9t19.5 -9t18 -7.5q48 -25 101 -25q46 0 106 14q27 6 51.5 11.5t37.5 8t16 3.5q0 45 -2 84v86q0 127 77 127q131 0 183 -76q1 -18 2.5 -25.5t7.5 -20t18 -19.5q119 84 236 249q131 186 131 308q0 107 -43 159q-29 18 -64 48 q-12 4 -16 4q-11 0 -59 -25q-45 -25 -82 -25q-6 0 -27.5 2t-34.5 3q-28 22 -59 22q-35 0 -131 -47q-258 -129 -455 -348q-13 -13 -53 -72q-38 -54 -41 -67q-3 -12 -6 -33q-31 -112 -31 -135z" />
<glyph unicode="R" horiz-adv-x="1415" d="M-37 1006q6 89 53 116q10 1 36.5 7t37.5 8q14 2 70 28q48 23 67 23q8 0 38 -4t38 -4q14 0 52 10.5t48 11.5q123 3 369 12h23q30 2 68 2t85 -2q82 -2 154 -2q12 0 47 -4t47 -4t56.5 3t58.5 3q52 0 92.5 -37.5t40.5 -87.5q0 -38 -12 -53q-121 -139 -345 -313 q-35 -26 -167.5 -127t-204.5 -154l-8 -28q25 -21 73 -35q58 -18 80 -29q62 -33 178 -70q83 -24 183 -55q20 -7 47 -41q28 -36 28 -51q0 -102 -112 -102q-161 0 -248 34q-44 23 -129 56q-23 7 -111.5 35t-156.5 49l2 -13q0 -7 -17 -129q-13 0 -51 -24q-36 -25 -57 -25 q-40 0 -68 19q-4 2 -47 49q-18 21 -55 201q-32 166 -37 223q-11 32 -35 133q0 82 -16 266q-7 23 -33 23q-7 0 -29.5 -4.5t-29.5 -4.5q-8 7 -42.5 38t-60.5 53zM393 967l47 -428h9h4q42 0 112 55l107 82q19 8 45 22q59 56 160 144q89 72 98 78q67 61 84 86l-373 10h-8 q-39 0 -141 -15q-99 -14 -144 -34z" />
<glyph unicode="S" horiz-adv-x="1150" d="M16 164q0 110 31 205q20 61 105 166q80 95 139 139q24 17 61 31q42 14 66 24q67 -9 110 -37q7 -18 7 -35q0 -56 -86 -133q-4 -3 -23.5 -17t-34.5 -24q-28 -31 -84 -139q-51 -105 -51 -149q0 -150 190 -150q55 0 183 23q9 6 30 18q25 14 80 39q55 28 103 88q49 58 49 111 v6v57q0 10 -13 29t-14 22q-48 115 -92 170q-67 95 -205 230q-162 159 -213 221q-7 13 -59 100q-92 130 -92 172q0 4 4 19.5t4 19.5q0 8 -4 34t-4 34q0 75 82 112q67 31 151 31q141 0 289 -43q33 -7 70 -33q96 -69 137 -168q33 -76 33 -217q0 -4 6 -26t6 -29q0 -48 -44 -86.5 t-95 -38.5q-56 0 -93.5 35t-37.5 90q0 13 7 56t7 55q0 36 -28 75.5t-64 57.5q-3 16 -15 24h-12q-12 0 -43.5 6.5t-38.5 6.5q-30 0 -49 -29q24 -102 199 -283q251 -260 258 -272q33 -51 119 -164v-18q19 -30 38 -78q35 -134 35 -205q0 -4 4 -21t4 -22q0 -9 -4 -21 q-18 -80 -98 -170q-75 -87 -158 -129q-39 -11 -63 -20q-189 -80 -340 -80q-159 0 -299 76q-21 12 -47 16q-103 121 -103 238z" />
<glyph unicode="T" horiz-adv-x="1345" d="M-35 1163q0 46 31 94q39 13 127 35q128 20 289 54q51 22 63 26q426 101 629 101q291 0 291 -109q0 -20 -12 -39t-21 -27t-37.5 -27t-32.5 -22q-30 23 -104 23q-23 0 -248 -37h-6q-5 0 -21 2t-20 2l-24 -7q-16 -4 -71 -18q-38 -9 -61 -14q-30 -86 -30 -201q0 -36 28 -294 q0 -45 6 -134q0 -5 9.5 -26t9.5 -29q0 -4 -3 -18.5t-3 -18.5q0 -28 55 -190t55 -189q0 -112 -110 -112h-68q-36 39 -86 110q0 12 -6 39q-16 56 -16 80q0 7 2 34t2 34q0 78 -39 235q-42 183 -45 246q-1 8 -9 52t-8 59q0 25 2 45v43q0 89 -24 141h-15h-8q-60 0 -166 -43 q-110 -45 -170 -45q-46 0 -73 47q-26 46 -45 53q-17 17 -17 45z" />
<glyph unicode="U" horiz-adv-x="1470" d="M20 731q0 45 17 184q18 123 18 183q0 4 -3 18.5t-3 18.5t13 30t14 31q48 31 108 31q53 0 89 -30.5t36 -80.5q0 -16 -20 -92q-41 -181 -41 -301q0 -162 53 -277q7 -16 20.5 -47t20.5 -47q24 -55 55 -80q4 -4 16.5 -18.5t18.5 -21t17 -13t20 -6.5h14q21 28 56 53 q46 34 61 49q8 19 33 58q117 137 227 344q5 5 41 51q96 169 197 391q13 30 16 70q5 46 10 71q15 58 123 58q47 0 99 -37q55 -34 55 -76q0 -28 -23 -92q-30 -71 -32 -90q-39 -204 -39 -338q0 -218 65 -469q2 -15 12 -53q22 -18 41 -39q4 -4 21 -66q18 -65 18 -69 q0 -49 -47 -76q-44 -23 -88 -23l-12 2q-53 3 -115 95q-56 83 -59 141q-3 6 0 20q2 10 2 19q-7 29 -19 88q-3 14 -3 42q0 36 5 95q10 81 10 119q0 9 -1 16q-9 64 -58 70q-4 -2 -8 -6q-15 -33 -72 -142q-75 -134 -178 -264q-138 -175 -225 -215q-8 0 -55 -8q-53 -6 -58 -6 q-118 0 -233 115q-93 93 -152 223q-78 182 -78 397z" />
<glyph unicode="V" horiz-adv-x="1181" d="M-23 1198q0 -1 0 2t0.5 12t1 20.5t1.5 31.5q19 18 43 22q12 1 22.5 2t15 1.5t5.5 0.5t14 7.5t18 7.5q13 0 36 -17t28 -18q64 -118 157 -305q35 -91 103 -269q49 -131 49 -157q0 -21 16 -58q27 -59 31 -62q2 -1 6 -1q9 0 17 8q34 24 59 90q21 52 39 105q32 56 94.5 166 t93.5 165q131 241 134 340q47 47 118 47q42 0 86 -47q45 -45 45 -92q0 -13 -13.5 -50.5t-14.5 -47.5q-36 -22 -70 -94q-40 -98 -47 -117q-7 -8 -57 -78q-50 -91 -99 -186q-44 -85 -88 -191q-5 -17 -37 -57q-28 -39 -34 -60q-38 -134 -52 -188q-40 -124 -94 -158 q-12 -6 -35 -6q-64 0 -125 76q-22 59 -28 72q-16 16 -35 47q-8 49 -37 141q-4 2 -18 16q-6 68 -38 68h-3l12 21v10q2 20 -76 215q-68 163 -100 229q-14 60 -51 154q-2 6 -60 86q-33 42 -33 96z" />
<glyph unicode="W" horiz-adv-x="1701" d="M8 1411q53 53 107 53q68 0 131 -75q27 -30 33 -136q10 -165 102 -657h20q13 0 19 14q38 78 188 424q65 145 86 228q0 24 13 84q9 14 88 75q21 -2 90 -26q100 -60 100 -127q0 -8 -6 -39t-6 -39q0 -119 16 -266q19 -72 43 -181q3 -17 8.5 -49.5t8.5 -48.5q9 -54 34 -90v-12 q0 -35 29 -111q10 0 23 29q50 115 114 325q69 221 109 326q63 146 133 322q3 9 19 59t28 90q5 12 22 29.5t27 17.5q8 0 39 -8t39 -8q88 -101 88 -113q0 -33 -113 -332q-109 -288 -141 -356q12 -27 12 -33q0 -2 -2 -8q-3 -2 -12 -10t-14 -14q-25 -41 -111 -312 q-86 -278 -86 -317q0 -5 2 -24.5t2 -24.5q0 -48 -45 -90q-43 -43 -90 -43q-9 0 -25 4q-88 37 -129 129q-6 20 -59 176q-39 98 -70 196q-12 38 -41 185q-20 111 -53 182q-37 -34 -71 -135q-35 -98 -64 -146q-1 -4 2 -22q-12 -26 -32.5 -77t-32.5 -77q-36 -89 -52 -159 q0 -43 -22 -136q-11 -20 -42.5 -42.5t-51.5 -22.5q-44 0 -94 36t-62 78q-21 60 -29 152q-13 122 -20 154q-24 137 -92 454q-12 23 -35 95q-13 65 -72 450z" />
<glyph unicode="X" horiz-adv-x="1382" d="M-29 121v7q0 21 9 75q53 109 227 280q251 245 264 260q7 7 10 37q-5 10 -196 238q-146 178 -146 244q0 104 74 104q95 0 156 -55q46 -41 92 -140q56 -121 172 -237q66 59 135 139q128 144 131 148q179 193 281 305q16 4 22 4q25 0 45 -23q2 0 22.5 7.5t28.5 7.5 q39 0 62 -45q20 -36 20 -78q0 -69 -34 -103q-41 -29 -99 -73q-82 -73 -211 -205q-44 -50 -129 -144q-43 -41 -121 -141q258 -310 359 -395q17 0 47 -12q62 -62 113 -103q38 -32 38 -63q0 -53 -20 -97q-20 -53 -63 -69q-13 4 -62 10q-32 3 -57 31q-77 89 -109 102 q-95 101 -301 336q-6 12 -18.5 33.5t-18.5 32.5q-21 39 -54 39h-5q-100 -103 -293 -308l-55 -49q-35 -28 -41 -61q-1 -13 -4 -39t-4 -39q-3 -26 -37 -78l-29 -24h-16h-13q-83 0 -108 38q-25 43 -64 103z" />
<glyph unicode="Y" horiz-adv-x="1728" d="M4 850q0 76 43 158q36 68 105 157q95 121 114 150q21 34 49 37q12 4 29 4q19 0 127 -19q19 -13 49 -47q6 -29 27 -88q-89 -85 -228 -246q-15 -21 -30 -67q-12 -42 -27 -72q6 -15 6 -117q0 -97 94 -161q82 -58 185 -58q36 0 55 8q25 13 43 17q202 47 391 172q44 20 123 74 q124 118 203 247q100 160 100 299q0 85 -41 150q-4 -2 -14 -2q-22 0 -38.5 5t-31 18t-21 20.5t-20.5 29t-18 27.5v51l57 41q127 -6 213 -59q38 -21 80 -78q45 -57 45 -94q0 -6 19 -61q18 -52 18 -89q0 -95 -37 -182q-94 -223 -160 -274l-4 -31q-202 -224 -411 -346 q8 -51 10 -109q2 -43 39 -157q35 -107 35 -162q0 -74 -90 -74q-24 0 -62 47q-9 12 -26.5 35t-26.5 35q-17 13 -43 47q-12 28 -53 158q-23 40 -35 67q-11 11 -27 11q-15 0 -52 -15t-44 -16q-150 -17 -188 -17q-116 0 -164 31q-67 44 -113 57q-4 13 -14 25q-4 2 -20 12.5 t-29 18.5q-50 41 -103 121q-51 80 -57 137q-2 15 -19 84q-12 50 -12 90z" />
<glyph unicode="Z" horiz-adv-x="1363" d="M-20 117q0 34 40 80q12 11 33.5 34t32.5 35q51 85 201 295q194 238 280 400q-282 -41 -342 -41q-40 0 -75 65q-27 55 -27 102q0 25 31.5 56t52.5 31q17 0 35 -11q49 8 260 31q150 17 258 49q27 9 178 80q3 1 7.5 1.5t11.5 1t12 1.5q30 33 42.5 39t53.5 6q43 0 88 -10 q86 -83 86 -135q0 -14 -10 -31q-16 -34 -152 -125q-174 -115 -180 -121q-22 -22 -76 -98q-104 -135 -403 -541q14 -2 45 -2q15 0 68 3t69 3q14 0 63 -2t62 -2q7 0 32.5 2t33.5 2l1 -4q1 -4 4.5 -8t10.5 -4h274q154 0 250 -8q30 -2 60 -29t30 -53q0 -58 -59 -96 q-53 -35 -113 -35q-16 0 -168 4t-168 4q-348 0 -516 -33q-58 -26 -123 -47q-6 -21 -32 -57q-56 -3 -88 -17q-100 47 -142 78q0 12 -16 53t-16 54z" />
<glyph unicode="a" horiz-adv-x="897" d="M31 276q0 19 6 37q15 47 86 109q64 55 119 80q62 29 184 65q120 36 184 62q-3 64 -43 157q-43 27 -96 27q-47 0 -106 -20q-66 -24 -89 -56q-79 -55 -159 -55q-82 0 -82 82l2 8q24 89 178 172q143 76 248 76q178 0 272 -88q54 -48 92 -158q39 -104 39 -188v-264 q0 -131 -78 -181q-8 -5 -83 -14q-35 -49 -43 -61l-27 -7q-90 -84 -219 -84q-99 0 -201 48q-66 31 -125 108t-59 145zM324 262q2 -13 26 -53q29 -16 121 -16q55 0 86 8q3 1 33.5 12.5t38.5 11.5q-6 24 -6 49q0 27 6 48q-33 26 -86 26q-57 0 -121 -24.5t-98 -61.5z" />
<glyph unicode="b" horiz-adv-x="792" d="M8 1190q0 80 117 80q131 0 131 -240q0 -43 -2 -76t-2 -65l2 -19q10 -13 53 -16q6 -1 17 -1q23 0 67 3q13 1 24.5 1t18.5 0.5t13.5 0.5h8.5h1q100 0 194 -61q105 -64 123 -158q1 -3 11 -23t10 -28q0 -97 -146 -281q-33 -14 -51 -49q-21 -41 -35 -55q-126 -132 -256 -211 q-7 -7 -61 -15q-56 -12 -66 -12q-26 0 -47.5 28t-21.5 58q0 5 2 22.5t2 22.5v6q-28 149 -68 443q-3 9 -37 49v6q-1 17 10 70.5t11 68.5q0 29 -6 88q-7 68 -7 88q0 14 3.5 60.5t3.5 58.5q0 18 -8.5 78t-8.5 78zM262 549q0 -78 45 -254q38 29 68 45q2 4 96 115q61 73 61 125 q0 18 -2 26q-40 49 -161 49q-107 0 -107 -106z" />
<glyph unicode="c" horiz-adv-x="884" d="M8 371q0 37 41 133q39 93 64 127q113 154 204 235q127 114 213 162q21 12 60 12q42 0 88 -12l49 -92q27 -56 27 -100q0 -21 -23 -78q-29 -69 -33 -80q-3 -13 -9 -38.5t-9 -39.5q-16 -43 -53 -57q-12 -4 -19 -4q-36 0 -76 43q-36 39 -47 77q-67 -21 -159 -141 q-90 -122 -90 -192q0 -36 41 -68.5t81 -32.5q111 0 269 107q174 116 254 131q22 -28 22 -66q0 -100 -110 -188q-42 -36 -193 -123q-3 -2 -16 -12t-17.5 -13.5t-16.5 -11t-20 -10.5t-19.5 -5.5t-23.5 -2.5q-15 0 -73 -21q-56 -20 -95 -20q-123 0 -221 131q-90 125 -90 250z " />
<glyph unicode="d" horiz-adv-x="1042" d="M18 238q0 92 31 131q142 183 373 364q7 3 57 31q124 130 241 130q8 0 15 -1q18 9 39 151q21 143 27 166q17 88 47 160l24 12q8 2 31 2q156 0 156 -129q0 -35 -19 -100q-28 -91 -30 -100q-18 -40 -29 -84q-31 -288 -31 -320q0 -59 8 -100q-8 -11 -8 -33q0 -14 11 -78 q12 -49 12 -78q0 -62 24 -147q37 -128 39 -145q-6 -6 -29.5 -32t-41.5 -46q-57 9 -97 63q-70 96 -71 97q-326 -203 -467 -203q-69 0 -111 10q-3 2 -30 18t-48 27q-36 18 -39 19q-19 9 -28 28q-56 95 -56 187zM250 197q21 -21 63 -21q19 0 36 6.5t31.5 15.5t18.5 11 q7 -1 17 -1q24 0 67 5q16 6 138 72q125 68 127 73q8 16 8 45q0 19 -11 72q-15 57 -18 70q14 20 14 39q-32 16 -55 16q-15 0 -213 -137q-71 -52 -135 -119q-91 -91 -88 -143v-4z" />
<glyph unicode="e" horiz-adv-x="983" d="M20 420q0 18 3 39q17 133 22 147q14 66 64 135q23 34 92 84q28 19 52 36t36.5 26t13.5 10q16 20 43 47q18 13 74 29q52 14 80 35q14 -3 51 -13t61 -16q168 -46 246 -162q33 -47 70 -158q33 -98 33 -167q-57 -97 -95 -97q-8 0 -40 8.5t-44 8.5q-121 0 -288 -66 q-12 -4 -84 -4q-24 0 -58 -12q-44 -17 -51.5 -21t-7.5 -10q0 -2 2 -8q78 -84 252 -84q33 0 125 6q17 -11 26 -17.5t18 -18.5t9 -25q0 -35 -26.5 -71t-59.5 -48q-23 -3 -68 -6l-12 -11h-137q-87 3 -135 17q-12 2 -127 94q-62 50 -101 132t-39 161zM340 600q36 5 326 51v31 q-53 35 -117 35q-121 0 -209 -117z" />
<glyph unicode="f" horiz-adv-x="974" d="M-10 440q0 49 20 88q24 52 66 52q9 0 40.5 -4.5t39.5 -4.5q50 0 104 45q15 54 45.5 163.5t46.5 164.5q107 333 291 451q33 20 78 20q134 0 248 -446q4 -12 4 -21q0 -141 -131 -141q-29 0 -45 8q-3 13 -29 47q-28 36 -31 56q-2 12 -4.5 30t-6.5 45.5t-7 48.5q-3 9 -17 9 q-4 0 -20 -4q-71 -71 -115 -183l-61 -209q14 -2 61 -2q56 0 99 2t98 2q30 0 82 -12q46 -13 82 -20q12 -15 12 -37q0 -77 -96 -115q-27 -9 -86 -12q-61 -3 -86 -10q-49 -10 -107 -27q-54 -16 -100 -43q-16 -101 -16 -203q0 -14 4 -64t4 -63q0 -46 -72 -112q-4 -2 -14 -2 q-9 0 -15 2q-15 12 -43 43q-42 56 -51 155l-3 84l-3 84l-18 19q-12 0 -58 -17.5t-63 -17.5q-49 0 -88 51t-39 100z" />
<glyph unicode="g" horiz-adv-x="952" d="M14 283v12l13 18q35 179 209 389q148 179 331 306q16 13 54 16q55 6 57 6q33 7 102 41q174 0 174 -123q0 -31 -14 -80q-12 -39 -16 -73v-162q0 -32 -33 -262q-6 -80 -41 -340q-71 -370 -272 -742q-41 -77 -109 -133q-75 -63 -156 -63q-42 0 -75 20q-2 5 -14 23.5 t-21.5 38.5t-9.5 34q0 27 43 48q12 5 33.5 16t33.5 16q52 37 158 232q97 181 119 264l43 154q24 91 24 157q0 17 -4 49q-16 -6 -190 -125l-35 -6q-17 -14 -78 -30q-66 -17 -90 -17q-108 0 -178 107q-58 93 -58 199v10zM254 260q0 -16 8 -29q8 -2 25 -2q51 0 71 13 q137 81 174 104q106 66 148 133q15 24 18 68l-2 -19v90q0 11 2 54t2 57v8q-22 11 -38 11q-10 0 -19 -3q-61 -50 -137 -110q-84 -72 -96 -143q-25 -11 -72 -52q-5 -20 -31 -75q-53 -83 -53 -105z" />
<glyph unicode="h" horiz-adv-x="821" d="M39 201q0 4 4 20.5t4 20.5q0 69 -2 120q-2 59 -2 121q0 103 4 287q3 52 12 199q9 126 9 198q0 17 -5.5 79t-5.5 79q0 178 131 178q84 0 113 -57q23 -48 23 -133q0 -69 -21 -195q-26 -184 -27 -196q-4 -66 -4 -144v-82q21 3 35 27q21 37 21 39q29 31 88 98q63 75 63 103 q47 41 96 41q68 0 154 -74q9 -66 27 -342q15 -212 49 -336q27 -87 27 -151q0 -14 -1 -27q3 -6 3 -17q0 -34 -50 -69q-47 -35 -86 -35q-59 0 -100 80q-35 65 -35 133q0 8 3 35t3 35q0 12 -11 42.5t-11 38.5t2 37t2 37q0 27 -12 82q-11 68 -11 82l-12 12q-106 -59 -188 -334 q-11 -37 -11 -92q1 -16 1 -31q0 -33 -5 -55q-7 -33 -47 -53t-82 -20q-57 0 -82 38q-14 20 -34 86q-29 89 -29 95z" />
<glyph unicode="i" horiz-adv-x="395" d="M29 1229q0 33 12 57l12 24l9 18t4 9q11 -5 52 -10t52 -10q96 -47 96 -158q0 -57 -41 -105t-94 -48q-46 0 -55 53q-18 24 -29 35q-18 82 -18 135zM57 629v2q0 97 17 170q74 26 90 26q58 0 97.5 -36t39.5 -91q0 -18 -4 -79t-4 -78q0 -95 20 -254q0 -1 2 -5t6.5 -14t8.5 -22 q2 -2 2 -62q0 -9 6 -42t6 -42t-1.5 -17t-3.5 -14t-7.5 -13t-8.5 -11.5t-11 -10.5t-11 -8.5t-13.5 -8.5t-13 -8t-14.5 -8l-14 -7q-16 -4 -27 -4q-97 0 -131 178q-12 59 -20 262q-1 21 -2 41.5t-2 37.5t-1.5 32t-1.5 27t-1.5 22.5t-1 17.5t-1 12t-0.5 7z" />
<glyph unicode="j" horiz-adv-x="536" d="M-401 -387q0 66 28 127q34 70 97 70q39 0 68.5 -26t29.5 -63q0 -14 -13.5 -58t-13.5 -56q0 -74 101 -193q102 -123 170 -123q61 0 108 72q41 65 41 127q0 36 18 121q21 83 21 135q0 81 -16 281q-17 212 -17 280q0 6 -10.5 27.5t-11.5 25.5v72q0 40 -19 137 q-16 101 -16 142q0 186 115 186q111 0 161 -115q4 -12 4 -24q0 -30 -14 -82q-12 -55 -12 -84q0 -53 22 -240q1 -15 7.5 -90t11.5 -133q0 -14 8 -53q4 -46 4 -51q0 -17 -16 -39q10 -72 10 -162q0 -12 -2 -33.5t-4.5 -45t-3.5 -30.5q-6 -236 -9 -254q-15 -132 -69 -243 q-16 -30 -78 -86q-62 -55 -96 -68q-73 -33 -166 -33q-67 0 -111 23q-93 55 -182 178q-84 120 -121 225q-24 67 -24 156zM215 1323q0 80 41 121q18 -6 84 -14q52 -6 82 -29q39 -85 39 -131q0 -55 -33.5 -94t-83.5 -39q-63 0 -98 65q-31 54 -31 121z" />
<glyph unicode="k" horiz-adv-x="899" d="M31 664q0 115 8 342q0 59 6 176q6 53 98 53t119 -49q21 -34 21 -129q0 -14 -9 -54t-10 -49q-12 -218 -12 -372q4 -7 10 -7q2 1 8 3l166 129q125 94 172 94q46 0 123 -21q45 -48 45 -98q0 -31 -20.5 -62t-46.5 -42q-4 0 -8.5 -1t-12 -2t-12.5 -2q-54 -25 -291 -221 q0 -23 39 -43q165 -89 520 -110q4 -20 4 -33q0 -150 -196 -150q-262 0 -422 68q-24 20 -56 33q-6 -28 -10 -41q-27 -53 -104 -53q-13 0 -25 4q-69 81 -84 213q-6 114 -12 231q-8 81 -8 193z" />
<glyph unicode="l" horiz-adv-x="376" d="M57 686q0 6 11 264q4 164 6 248q6 154 26 242q61 24 113 24q111 0 111 -196q0 -22 -10.5 -93t-10.5 -92q0 -13 4 -41q-10 -25 -20 -43q-2 -50 -3.5 -97t-3 -85.5t-2.5 -73.5t-2 -62t-2 -50t-2 -39t-1 -26.5t-0.5 -15t-0.5 -3.5q0 -66 19 -215q20 -134 20 -207 q0 -58 -20 -105q-23 -57 -64 -57q-8 0 -24 4q-23 23 -49 62q-95 201 -95 657z" />
<glyph unicode="m" horiz-adv-x="1232" d="M18 602q0 95 17 182q26 33 80 33q57 0 98.5 -33.5t40.5 -85.5q12 -4 16 -4q26 0 86 60q59 59 117 59q111 0 160 -102q12 -24 12 -29t-5 -21.5t-5 -21.5q0 -10 7.5 -40t8.5 -36q13 -13 25 -10q187 295 311 295q15 0 61.5 -10t55.5 -11q9 -7 33 -34q20 -20 20 -154 q0 -174 33 -336q3 -22 24 -74q19 -49 19 -71q0 -33 -12 -70q-59 -59 -150 -59q-55 46 -76 96q-17 46 -20 119q0 23 -17 106q-12 67 -12 107q-13 10 -18 10q-47 0 -68 -55q-4 -13 -16 -42t-17 -46q-15 -20 -53 -123q-28 -88 -59 -131q-45 -60 -113 -60q-16 0 -24 2 q-11 9 -21 31q-75 52 -90 213q-15 185 -53 231q-117 -72 -146 -153q4 -36 4 -55q0 -54 -26 -107q-30 -68 -76 -68q-19 0 -57 17.5t-45 30.5q-24 47 -39 217q-11 165 -11 233z" />
<glyph unicode="n" horiz-adv-x="872" d="M23 811q0 40 43 72t86 32q80 0 106 -106l31 -166q175 218 286 367q6 -2 19 -2q12 0 48 5t48 5q69 0 84 -74q20 -103 23 -381q3 -259 32 -366q3 -16 27 -50q25 -36 25 -51q0 -32 -13 -82q-13 -52 -31 -64.5t-65 -12.5q-18 0 -24 2q-24 3 -52 45l-37 61q-17 17 -36 51 q-31 137 -45 475l-11 31q-183 -206 -237 -375q0 -22 -17 -92q-25 -23 -92 -90q-31 7 -108 14q-22 39 -41 86q-1 17 -17 166l13 33q-3 115 -25 393q0 1 -10 32.5t-10 41.5z" />
<glyph unicode="o" d="M47 494q0 32 8 51q12 33 35 98t35 98q47 116 104 187l48 63t47 64q60 63 137 63q141 0 248 -155q95 -142 98 -289v-109q0 -103 -88 -313q-77 -188 -303 -283q-46 -18 -84 -18q-105 0 -209 131q-5 25 -14 51q-20 20 -37 53q-25 122 -25 308zM264 371q0 -33 21 -135 q22 -32 45 -29h24q169 120 246 420q4 20 4 30q0 102 -63 183q-16 4 -35 4q-71 0 -160 -203q-82 -180 -82 -270z" />
<glyph unicode="p" horiz-adv-x="931" d="M20 827q0 126 109 150q28 3 94 10t101 10q34 9 82 9q227 0 425 -109q34 -18 64 -104q29 -82 29 -123q0 -53 -78 -172t-78 -133q0 -7 4 -19q-11 -11 -47 -8q-32 -25 -150 -123q-33 -30 -83 -94q-63 -78 -84 -94q-48 -27 -105 -56q-4 -16 -4 -30q0 -30 16 -99 q23 -76 25 -98q1 -11 19 -61.5t18 -69.5q0 -41 -41.5 -73t-87.5 -32q-62 0 -103 78q-30 64 -30 135q0 30 -25 136q-29 117 -31 153q-4 74 -4 203q0 139 2 252t2 254q0 11 -20 47q-19 43 -19 61zM285 307h32l179 185q122 128 143 192q-64 49 -174 49q-16 0 -64 -2t-61 -2 l-27 -27q-28 -316 -28 -395z" />
<glyph unicode="q" horiz-adv-x="1042" d="M14 262v17q6 123 136 288q72 93 229 242q35 33 102 100q71 62 123 62h172q31 0 66 -53q37 -52 37 -84q0 -70 -17 -289q-16 -203 -16 -287q0 -112 8 -235q17 7 57 57q27 35 80 35q99 0 99 -146q0 -10 -35 -94q-36 -87 -43 -98q-16 -16 -45 -66q-3 -40 -23 -100 q-46 -70 -141 -70q-65 0 -90 25q-7 14 -22.5 40.5t-22.5 39.5v30v15q0 70 -15 227q-16 152 -20 242q-12 4 -19 4q-19 0 -43 -37q-25 -41 -49 -51q-8 -3 -58 -22.5t-75 -30.5q-71 -27 -143 -27q-49 0 -158 65q-1 3 -14.5 24.5t-16.5 27t-13 25t-13 29.5t-8.5 27.5t-7 34 t-1.5 33.5zM250 252q15 -21 51 -21q44 0 170 111q2 3 4 7.5t5 12.5t5 13q133 130 133 217q0 26 -22 72q-59 -21 -68 -52l-18 -73h-33q-16 3 -33 -4q-11 -13 -50 -60t-62 -72q-62 -77 -82 -151z" />
<glyph unicode="r" horiz-adv-x="929" d="M33 788q0 54 28 99q24 8 66 8q66 0 111 -31q44 -30 45 -30q27 0 104 71q107 101 156 133q107 72 198 72q160 0 160 -217q0 -47 -10 -139q-8 -63 -19 -138q-10 -20 -18 -34v-15v-9q0 -65 -41 -112q-45 -51 -104 -51h-7l-16 2q-40 31 -50.5 55.5t-10.5 77.5t14 136 q15 101 27 127h-11q-43 0 -123 -80q-64 -67 -112 -113q-116 -91 -119 -168v-14v-10q0 -56 29 -152q32 -92 32 -139q0 -58 -36.5 -97.5t-92.5 -39.5q-8 0 -20 4q-77 44 -107 182q-15 64 -24 223l-10 17q-3 25 -19 96q-16 69 -16 102q0 7 5 32t5 32q0 19 -8 55q-6 43 -6 65z " />
<glyph unicode="s" horiz-adv-x="626" d="M49 901q0 95 31 143q88 141 166 156q33 8 84 8q109 0 182 -61q76 -67 76 -174q0 -97 -27 -162q-19 -50 -88 -135q-2 -2 -10 -2q-46 0 -96 35q-56 38 -56 84q0 17 8 30q-11 4 -22 17q-2 -3 -18 -31q4 -68 16 -139q7 -32 35 -117q52 -115 125 -340q30 -90 34 -160 q-10 -64 -40 -90q-71 -53 -136 -63q-140 30 -168 63q-63 66 -63 213q0 67 14 105q21 8 54 8q26 0 47 -6q7 4 10 12l-37 115q-16 49 -33 75q-34 70 -63 201q-25 131 -25 215zM287 872q-3 -14 20 -24q17 27 17 74q-11 -14 -37 -43v-7z" />
<glyph unicode="t" horiz-adv-x="876" d="M-27 752q0 69 82 69q40 0 99 47q8 41 8 119q0 166 51 414q3 20 53 88q201 0 201 -127q0 -28 -29 -113q-33 -93 -35 -125q-1 -6 -11 -83t-17 -134q11 -8 31 -8q24 0 61 12l59 19q172 35 222 35q34 0 92 -15q81 -19 90 -20q31 -28 31 -68q0 -52 -43 -67q-38 -3 -107 -21 q-59 -26 -215 -61q-142 -30 -213 -68q-2 -14 -2 -45q0 -101 59 -272q28 -44 45 -78q43 -112 105 -133q1 -2 7.5 -20t10.5 -31.5t8.5 -31t4.5 -28.5q0 -78 -84 -78q-31 0 -72 13q-15 3 -37 34q-24 36 -31 43q-42 39 -137 228q-3 15 -6 39q-16 55 -41 80q-13 86 -20 172 q-10 15 -21 26q-9 9 -70 15q-64 10 -88 34q-41 41 -41 140z" />
<glyph unicode="u" horiz-adv-x="1001" d="M45 303q0 96 0.5 127.5t1.5 24.5l10 24q3 72 29 178q35 124 68 160q83 -5 106 -10q51 -12 87 -57t36 -95q0 -23 -35 -82q-36 -58 -45 -88q-3 -3 -24 -190l12 -12h8q28 0 156 168q46 63 75 106q44 64 58 115q9 31 27.5 95.5t27.5 96.5q50 133 131 133q26 0 94 -41 q67 -40 76 -61q4 -20 4 -49q0 -53 -49 -105q-49 -49 -49 -94q0 -274 61 -411q15 -34 27 -99q9 -55 23 -96q-65 -80 -101 -80q-101 0 -151 127q-33 97 -64 203q-54 -73 -135 -191q-97 -112 -193 -112q-113 0 -202 121q-7 14 -15 38q-1 2 -10 17.5t-10.5 19t-8.5 17.5t-9 19.5 t-6.5 18t-6 21t-3 20t-1.5 23.5z" />
<glyph unicode="v" horiz-adv-x="966" d="M25 776q0 34 71 72q51 -12 140 -53q7 -5 12.5 -13.5t11.5 -25t11.5 -32.5t15.5 -48t20 -60q41 -106 96 -194q21 9 43 57q3 3 144 326q85 193 160 315q63 -3 122 -28q82 -34 82 -78q0 -40 -22 -86q-58 -108 -166 -332q-20 -60 -90 -240q-57 -136 -80 -194l-25 -105 q-17 -56 -65 -84l-27 -2h-5q-107 0 -175 129q-2 10 -10.5 37t-12.5 41q-13 11 -36 43q-4 8 -56 115q-86 170 -104 213q-55 128 -55 227z" />
<glyph unicode="w" horiz-adv-x="1267" d="M35 868l4 35v6q-2 38 17.5 57t60.5 19q58 0 114 -29q59 -35 68 -94q0 -4 -2 -17t-2 -16q0 -2 14.5 -36.5t14.5 -47.5q0 -4 -2.5 -19.5t-2.5 -20.5q0 -45 37 -138q28 29 66 84q13 20 28 42.5t21.5 31.5t9.5 12l-2 8v7q0 80 66 118h16h15q116 0 165 -88q55 -98 121 -364 q6 -2 15 -2q32 0 47 57q3 15 8 43t8 41q21 47 45 148q9 95 21 174q33 45 73 45q72 0 117 -43.5t45 -112.5q0 -25 -29 -180q-29 -153 -38 -174q-18 -48 -35 -138q-14 -84 -43 -137q-6 -19 -11 -59q-4 -36 -36 -56t-84 -20q-7 0 -14.5 1.5t-14 3t-15 5t-13.5 6t-14.5 8t-14 8 t-14.5 10t-13 9.5t-14 10t-13 9q-20 36 -118 176q-82 118 -91 188q-6 6 -10 6q-2 -2 -8 -2q-50 -78 -121 -227q-6 -18 -18 -98q-8 -54 -35 -92q-30 -7 -59 -15t-40.5 -11t-13.5 -3q-93 0 -145 172q-37 124 -37 252q0 170 -94 448z" />
<glyph unicode="x" horiz-adv-x="966" d="M33 164q0 11 4 39q19 21 69 74t105.5 112.5t110.5 120.5v8q3 27 -41 62q-6 4 -29.5 21.5t-36.5 25.5q-28 40 -98 123l4 28t5 31.5t8 26.5t15.5 26.5t24.5 18.5q87 -9 121 -19q45 -17 96 -78q35 -25 62 -43q2 -4 22 -36q40 9 70 61q38 72 51 82q23 20 41.5 46t26.5 41.5 t24 49.5q20 44 51 51q12 4 25 4q63 0 123 -51q61 -49 61 -110q0 -48 -12 -66q-53 -73 -262 -307q0 -45 102 -137q105 -89 105 -154q0 -43 -27 -84q-30 -47 -72 -47q-36 0 -94 43q-53 40 -78 72q-1 1 -22 53q-20 44 -49 70q-85 -24 -207 -185q-115 -151 -154 -151 q-20 0 -55 18q-49 24 -53 25q-37 75 -37 135z" />
<glyph unicode="y" horiz-adv-x="931" d="M25 547q0 30 28 119q18 62 39 120q9 37 43 95q39 64 49 92q7 26 37 98q27 41 74 41q24 0 108 -35q23 -9 62 -106q-2 -23 -23 -90q-1 -1 -5 -7.5t-13.5 -21t-20.5 -29.5q-18 -25 -26 -71q-26 -9 -41 -50q-7 -39 -14 -63q-26 -45 -60 -145q-10 -88 -10 -132q0 -135 70 -178 q15 2 98 29q76 27 84 35q20 23 98 250q70 198 131 198q57 0 121 -55q64 -52 64 -111q0 -25 -25 -61q-11 -16 -21.5 -30t-14.5 -20t-5 -7q-20 -53 -90 -187q-3 -19 -12 -53q-9 -35 -60 -109q0 -11 -6 -32q-17 -30 -43 -90q-23 -55 -45 -108.5t-31 -74.5t-10 -24 q-62 -124 -135 -170q-16 -13 -53 -13l-56 3q-15 12 -24 24q-2 12 -2 37q0 100 45 186q0 1 3 8.5t7 20t10 29.5t14 41.5t17 50.5q-67 24 -135 51q-78 35 -121 78q-7 23 -12 33q-88 85 -88 434z" />
<glyph unicode="z" horiz-adv-x="948" d="M43 809q0 59 37 102q62 22 297 31q203 9 268 68q186 -15 186 -138q0 -42 -30 -86q-5 -3 -28 -18t-40 -25q-158 -142 -397 -499l20 -11h45q153 0 461 33l15 -10l8 2q20 0 59 -25q37 -19 47 -43q-3 -30 -22 -71q-90 -96 -422 -117h-10q-8 -1 -31 5.5t-29 6.5 q-49 0 -133 -20q-86 -21 -131 -21q-168 0 -168 154q0 66 43 133q93 162 264 428q-20 10 -35 10q-5 0 -55.5 -17t-77.5 -17q-63 0 -102 41t-39 104z" />
<glyph unicode="&#xa0;" />
<glyph unicode="&#x2000;" horiz-adv-x="819" />
<glyph unicode="&#x2001;" horiz-adv-x="1638" />
<glyph unicode="&#x2002;" horiz-adv-x="819" />
<glyph unicode="&#x2003;" horiz-adv-x="1638" />
<glyph unicode="&#x2004;" horiz-adv-x="546" />
<glyph unicode="&#x2005;" horiz-adv-x="409" />
<glyph unicode="&#x2006;" horiz-adv-x="273" />
<glyph unicode="&#x2007;" horiz-adv-x="273" />
<glyph unicode="&#x2008;" horiz-adv-x="204" />
<glyph unicode="&#x2009;" horiz-adv-x="327" />
<glyph unicode="&#x200a;" horiz-adv-x="91" />
<glyph unicode="&#x202f;" horiz-adv-x="327" />
<glyph unicode="&#x205f;" horiz-adv-x="409" />
<glyph unicode="&#x25fc;" horiz-adv-x="1044" d="M0 0v1044h1044v-1044h-1044z" />
</font>
</defs>
</svg>
